<svg width="60" height="60" viewBox="0 0 60 60" fill="none" xmlns="http://www.w3.org/2000/svg">
<rect width="60" height="60" rx="20" fill="#FBE0DC"/>
<path fill-rule="evenodd" clip-rule="evenodd" d="M15 30C15 21.7157 21.7157 15 30 15C38.2843 15 45 21.7157 45 30C45 38.2843 38.2843 45 30 45C21.7157 45 15 38.2843 15 30ZM30 17C22.8203 17 17 22.8203 17 30C17 37.1797 22.8203 43 30 43C37.1797 43 43 37.1797 43 30C43 22.8203 37.1797 17 30 17ZM25 27H23V25H25V27ZM37 27H35V25H37V27ZM22.6 35.2L23.2 34.4C26.6 29.8667 33.4 29.8667 36.8 34.4L37.4 35.2L35.8 36.4L35.2 35.6C32.6 32.1333 27.4 32.1333 24.8 35.6L24.2 36.4L22.6 35.2Z" fill="#FF868E"/>
</svg>
